# xmcd CD database file
#
# Track frame offsets:
#	150
#	12539
#	27865
#	45190
#	57996
#	73370
#	91255
#	104648
#	118129
#	132106
#	148673
#	165718
#
# Disc length: 2426 seconds
#
# Revision: 2
# Processed by: cddbd v1.5.2PL0 Copyright (c) Steve Scherf et al.
# Submitted via: CDex 1.51
#
DISCID=aa09780c
DTITLE=Vianney - Idees Blanches
DYEAR=2014
DGENRE=Pop
TTITLE0=Aux Debutants De l'Amour
TTITLE1=Tu Le Sais
TTITLE2=Pas La
TTITLE3=On Est Bien Comme Ca
TTITLE4=Chanson d'Hiver
TTITLE5=Je Te Deteste
TTITLE6=Labello
TTITLE7=Veronica
TTITLE8=Les Gens Sont Mechants
TTITLE9=Notre-Dame des Oiseaux
TTITLE10=Tout Seul
TTITLE11=Mon Etoile
EXTD=YEAR: 2014
EXTT0=
EXTT1=
EXTT2=
EXTT3=
EXTT4=
EXTT5=
EXTT6=
EXTT7=
EXTT8=
EXTT9=
EXTT10=
EXTT11=
PLAYORDER=
